<?xml version="1.0"?>
<svg xmlns="http://www.w3.org/2000/svg" xmlns:xlink="http://www.w3.org/1999/xlink" xmlns:svgjs="http://svgjs.com/svgjs" version="1.1" width="512" height="512" x="0" y="0" viewBox="0 0 512 512" style="enable-background:new 0 0 512 512" xml:space="preserve" class=""><g>
<path xmlns="http://www.w3.org/2000/svg" style="" d="M512,471.273L512,471.273C512,493.382,493.382,512,471.273,512l0,0  c-11.636,0-22.109-4.655-30.255-12.8L310.691,357.236c-4.655-4.655-4.655-11.636,0-16.291l30.255-30.255  c4.655-4.655,11.636-4.655,16.291,0L499.2,442.182C507.345,449.164,512,460.8,512,471.273z" fill="#fdd100" data-original="#b06328" class=""/>
<rect xmlns="http://www.w3.org/2000/svg" x="292.065" y="283.928" transform="matrix(-0.7071 0.7071 -0.7071 -0.7071 744.4417 308.3694)" style="" width="32.581" height="48.872" fill="#b0c4d8" data-original="#b0c4d8" class=""/>
<path xmlns="http://www.w3.org/2000/svg" style="" d="M320,320l5.818,5.818l11.636-11.636l-34.909-34.909l-23.273,23.273L296.727,320l0,0  C303.709,313.018,313.018,313.018,320,320z" fill="#99b4cd" data-original="#99b4cd" class=""/>
<path xmlns="http://www.w3.org/2000/svg" style="" d="M174.545,0C77.964,0,0,77.964,0,174.545s77.964,174.545,174.545,174.545  s174.545-77.964,174.545-174.545S271.127,0,174.545,0z M174.545,314.182c-76.8,0-139.636-62.836-139.636-139.636  S97.745,34.909,174.545,34.909s139.636,62.836,139.636,139.636S251.345,314.182,174.545,314.182z" fill="#c4d7e5" data-original="#c4d7e5" class=""/>
<circle xmlns="http://www.w3.org/2000/svg" style="" cx="174.545" cy="174.545" r="139.636" fill="#70b7e5" data-original="#70b7e5" class=""/>
<path xmlns="http://www.w3.org/2000/svg" style="" d="M105.891,190.836c5.818-44.218,40.727-79.127,84.945-84.945H192  c19.782-2.327,20.945-30.255,2.327-33.745c-11.636-2.327-23.273-2.327-34.909-1.164c-45.382,6.982-81.455,43.055-87.273,87.273  c-2.327,11.636-1.164,24.436,1.164,34.909c3.491,19.782,31.418,17.455,33.745-2.327C105.891,192,105.891,190.836,105.891,190.836z" fill="#92c5eb" data-original="#92c5eb" class=""/>
<path xmlns="http://www.w3.org/2000/svg" style="" d="M46.545,186.182c0-76.8,62.836-139.636,139.636-139.636c36.073,0,67.491,13.964,93.091,34.909  c-25.6-29.091-62.836-46.545-104.727-46.545c-76.8,0-139.636,62.836-139.636,139.636c0,41.891,18.618,79.127,46.545,104.727  C60.509,253.673,46.545,222.255,46.545,186.182z" fill="#4c9cd6" data-original="#4c9cd6" class=""/>
<path xmlns="http://www.w3.org/2000/svg" style="" d="M174.545,349.091L174.545,349.091c96.582,0,174.545-77.964,174.545-174.545l0,0  c-5.818,0-11.636,4.655-11.636,11.636c-2.327,39.564-19.782,75.636-46.545,102.4c-26.764,27.927-64,45.382-104.727,48.873  C179.2,337.455,174.545,343.273,174.545,349.091z" fill="#b0c9db" data-original="#b0c9db" class=""/>
<path xmlns="http://www.w3.org/2000/svg" style="" d="M174.545,0L174.545,0C77.964,0,0,77.964,0,174.545l0,0c5.818,0,11.636-4.655,11.636-11.636  C13.964,124.509,30.255,89.6,54.691,64c27.927-29.091,66.327-48.873,108.218-52.364C169.891,11.636,174.545,5.818,174.545,0z" fill="#e2e7f0" data-original="#e2e7f0" class=""/>
<path xmlns="http://www.w3.org/2000/svg" style="" d="M498.036,441.018l-6.982-5.818c5.818,6.982,9.309,16.291,9.309,25.6l0,0  c0,15.127-18.618,20.945-29.091,10.473L349.091,349.091c-6.982-6.982-17.455-6.982-24.436,0l-11.636,11.636l126.836,136.145  c6.982,6.982,16.291,12.8,25.6,13.964c12.8,1.164,25.6-3.491,33.745-11.636c8.145-8.145,12.8-20.945,11.636-33.745  C510.836,456.145,505.018,448,498.036,441.018z" fill="#18110d" data-original="#a35425" class=""/>
<path xmlns="http://www.w3.org/2000/svg" style="" d="M378.182,360.727c-1.164,0-3.491,0-4.655-1.164l-29.091-29.091c-2.327-2.327-2.327-5.818,0-8.145  c2.327-2.327,5.818-2.327,8.145,0l29.091,29.091c2.327,2.327,2.327,5.818,0,8.145C381.673,360.727,379.345,360.727,378.182,360.727z  " fill="#c97629" data-original="#c97629"/>
<g xmlns="http://www.w3.org/2000/svg">
</g>
<g xmlns="http://www.w3.org/2000/svg">
</g>
<g xmlns="http://www.w3.org/2000/svg">
</g>
<g xmlns="http://www.w3.org/2000/svg">
</g>
<g xmlns="http://www.w3.org/2000/svg">
</g>
<g xmlns="http://www.w3.org/2000/svg">
</g>
<g xmlns="http://www.w3.org/2000/svg">
</g>
<g xmlns="http://www.w3.org/2000/svg">
</g>
<g xmlns="http://www.w3.org/2000/svg">
</g>
<g xmlns="http://www.w3.org/2000/svg">
</g>
<g xmlns="http://www.w3.org/2000/svg">
</g>
<g xmlns="http://www.w3.org/2000/svg">
</g>
<g xmlns="http://www.w3.org/2000/svg">
</g>
<g xmlns="http://www.w3.org/2000/svg">
</g>
<g xmlns="http://www.w3.org/2000/svg">
</g>
</g></svg>
